<svg viewBox="0 0 18 18" fill="none" xmlns="http://www.w3.org/2000/svg">
<g id="Icons">
<g id="24" clip-path="url(#clip0_24)">
<path id="Vector" d="M9 9.75C10.2428 9.75 11.25 10.7572 11.25 12C11.25 12.6375 10.9852 13.212 10.56 13.6215L9.1275 15H11.25V16.5H6.75V15.207L9.51975 12.5408C9.66225 12.4035 9.75 12.2122 9.75 12C9.75 11.586 9.414 11.25 9 11.25C8.586 11.25 8.25 11.586 8.25 12H6.75C6.75 10.7572 7.75725 9.75 9 9.75ZM13.5 9.75V12.75H15V9.75H16.5V16.5H15V14.25H12V9.75H13.5ZM3 9C3 10.8953 3.87825 12.585 5.25 13.6845V15.4965C3.00825 14.1998 1.5 11.7765 1.5 9H3ZM9 1.5C12.8888 1.5 16.0868 4.46025 16.4625 8.25H14.9535C14.5845 5.2905 12.06 3 9 3C6.9375 3 5.118 4.04025 4.03875 5.625H6V7.125H1.5V2.625H3V4.5C4.368 2.6775 6.54675 1.5 9 1.5Z" fill="currentColor"/>
</g>
</g>
<defs>
<clipPath id="clip0_24">
<rect width="18" height="18" fill="white"/>
</clipPath>
</defs>
</svg>
